<?xml version="1.0" encoding="utf-8"?>
<!-- Generator: Adobe Illustrator 19.1.0, SVG Export Plug-In . SVG Version: 6.00 Build 0)  -->
<svg version="1.1" id="Layer_1" xmlns="http://www.w3.org/2000/svg" xmlns:xlink="http://www.w3.org/1999/xlink" x="0px" y="0px"
	 viewBox="-559 556.9 80 89.1" style="enable-background:new -559 556.9 80 89.1;" xml:space="preserve">
<g>
	<g>
		<path d="M-558.2,556.9c-0.4,0-0.7,0.3-0.7,0.7v21.7c0,0.4,0.3,0.7,0.7,0.7h25.2c0.4,0,0.9-0.3,1.1-0.6l12.6-21.8
			c0.2-0.3,0-0.6-0.4-0.7L-558.2,556.9L-558.2,556.9z"/>
	</g>
	<g>
		<path d="M-518.2,556.9c-0.4,0-0.6,0.3-0.4,0.6l12.6,21.8c0.2,0.3,0.7,0.6,1.1,0.6h25.2c0.4,0,0.7-0.3,0.7-0.7v-21.7
			c0-0.4-0.3-0.7-0.7-0.6H-518.2L-518.2,556.9z"/>
	</g>
	<g>
		<path d="M-532.2,632.1c0,0.4,0.3,0.9,0.6,1l25.4,12.6c0.4,0.2,0.6,0,0.6-0.4v-64.6c0-0.4-0.3-0.7-0.7-0.7h-25.2
			c-0.4,0-0.7,0.3-0.7,0.7L-532.2,632.1L-532.2,632.1z"/>
	</g>
</g>
</svg>
